# xmcd
#
# Track frame offsets:
#	150
#	16085
#	28265
#	39408
#	49483
#	56810
#	68165
#	76820
#	87020
#	101695
#	111885
#	122900
#	133118
#	147973
#	162833
#
# Disc length: 2329 seconds
#
# Revision: 5
# Processed by: cddbd v1.5PL3 Copyright (c) Steve Scherf et al.
# Submitted via: EasyCDDAExtractor 7.0.3.1
#
DISCID=cc09170f
DTITLE=Johnny Cash - My Mother's Hymn Book
DYEAR=2004
DGENRE=Country
TTITLE0=Where We'll Never Grow Old
TTITLE1=I Shall Not Be Moved
TTITLE2=I Am A Pilgrim
TTITLE3=Do Lord
TTITLE4=When The Roll Is Called Up Yonder
TTITLE5=If We Never Meet Again This Side Of Heaven
TTITLE6=I'll Fly Away
TTITLE7=Where The Soul Of Man Never Dies
TTITLE8=Let The Lower Lights Be Burning
TTITLE9=When He Reached Down
TTITLE10=In The Sweet By And By
TTITLE11=I'm Bound For The Promised Land
TTITLE12=In The Garden
TTITLE13=Softly And Tenderly
TTITLE14=Just As I Am
EXTD=Limited Edition Deluxe Packaging With 5 Discs.\\r\n06024 9861335 1
EXTT0=
EXTT1=
EXTT2=
EXTT3=
EXTT4=
EXTT5=
EXTT6=
EXTT7=
EXTT8=
EXTT9=
EXTT10=
EXTT11=
EXTT12=
EXTT13=
EXTT14=
PLAYORDER=
